<svg xmlns="http://www.w3.org/2000/svg" width="44" height="44" viewBox="0 0 44 44">
  <defs>
    <radialGradient id="sb" cx="50%" cy="45%" r="60%">
      <stop offset="0%" stop-color="#ff6b6b"/>
      <stop offset="70%" stop-color="#ff2b2b"/>
      <stop offset="100%" stop-color="#c4001d"/>
    </radialGradient>
    <radialGradient id="shine" cx="38%" cy="32%" r="22%">
      <stop offset="0%" stop-color="#ffffff" stop-opacity="0.8"/>
      <stop offset="100%" stop-color="#ffffff" stop-opacity="0"/>
    </radialGradient>
  </defs>
  <g transform="translate(22,22)">
    <g fill="#d42525">
      <polygon points="0,-18 2.4,-12 -2.4,-12"/>
      <polygon points="0,18 2.4,12 -2.4,12"/>
      <polygon points="18,0 12,2.4 12,-2.4"/>
      <polygon points="-18,0 -12,2.4 -12,-2.4"/>
      <polygon points="13,-13 8.2,-9 9,-8.2"/>
      <polygon points="-13,-13 -8.2,-9 -9,-8.2"/>
      <polygon points="13,13 8.2,9 9,8.2"/>
      <polygon points="-13,13 -8.2,9 -9,8.2"/>
    </g>
    <circle r="12" fill="url(#sb)" stroke="#5a0a12" stroke-width="2"/>
    <ellipse cx="-4" cy="-5" rx="5" ry="3.2" fill="url(#shine)"/>
  </g>
</svg>