<?xml version="1.0" encoding="UTF-8"?>
<svg viewBox="0 0 256 256" xmlns="http://www.w3.org/2000/svg">
  <defs>
    <radialGradient id="g1" cx="50%" cy="40%" r="70%">
      <stop offset="0%" stop-color="#6b00ff"/>
      <stop offset="70%" stop-color="#4b00c7"/>
      <stop offset="100%" stop-color="#2b007a"/>
    </radialGradient>
    <linearGradient id="g2" x1="0" x2="1" y1="0" y2="0">
      <stop offset="0%" stop-color="#ff3366"/>
      <stop offset="100%" stop-color="#ff7700"/>
    </linearGradient>
  </defs>
  <rect width="256" height="256" fill="none"/>
  <circle cx="128" cy="136" r="100" fill="url(#g1)"/>
  <ellipse cx="128" cy="196" rx="70" ry="18" fill="#0b001f" opacity="0.45"/>
  <path d="M60,85 C75,50 105,45 110,80 L90,86 Z" fill="#ffe680" stroke="#b38b00" stroke-width="3"/>
  <path d="M196,85 C181,50 151,45 146,80 L166,86 Z" fill="#ffe680" stroke="#b38b00" stroke-width="3"/>
  <circle cx="96" cy="126" r="22" fill="#ffffff"/>
  <circle cx="160" cy="126" r="22" fill="#ffffff"/>
  <circle cx="96" cy="126" r="10" fill="#24004a"/>
  <circle cx="160" cy="126" r="10" fill="#24004a"/>
  <circle cx="98" cy="124" r="4" fill="#7fd2ff"/>
  <circle cx="162" cy="124" r="4" fill="#7fd2ff"/>
  <path d="M84,172 C112,204 144,204 172,172" fill="none" stroke="url(#g2)" stroke-width="10" stroke-linecap="round"/>
  <path d="M58,152 Q60,166 76,168" fill="none" stroke="#1f0040" stroke-width="5"/>
  <path d="M198,152 Q196,166 180,168" fill="none" stroke="#1f0040" stroke-width="5"/>
</svg>