<svg xmlns="http://www.w3.org/2000/svg" width="40" height="40" viewBox="0 0 40 40">
  <rect width="40" height="40" fill="#6b4a2a"/>
  <g fill="#3f2b17" opacity="0.14">
    <circle cx="6" cy="7" r="0.9"/>
    <circle cx="11" cy="9" r="0.8"/>
    <circle cx="17" cy="8" r="0.9"/>
    <circle cx="24" cy="9" r="0.8"/>
    <circle cx="30" cy="8" r="0.9"/>
    <circle cx="34" cy="11" r="0.8"/>

    <circle cx="8" cy="17" r="1.0"/>
    <circle cx="13" cy="15" r="0.9"/>
    <circle cx="19" cy="19" r="1.0"/>
    <circle cx="26" cy="17" r="0.9"/>
    <circle cx="32" cy="16" r="0.9"/>

    <circle cx="7" cy="27" r="0.8"/>
    <circle cx="12" cy="29" r="1.0"/>
    <circle cx="18" cy="28" r="0.9"/>
    <circle cx="25" cy="30" r="0.9"/>
    <circle cx="31" cy="27" r="0.8"/>

    <circle cx="10" cy="22" r="0.7"/>
    <circle cx="15" cy="24" r="0.7"/>
    <circle cx="22" cy="23" r="0.7"/>
    <circle cx="28" cy="21" r="0.7"/>
  </g>
  <g fill="#845d37" opacity="0.08">
    <circle cx="9" cy="12" r="1.2"/>
    <circle cx="21" cy="13" r="1.1"/>
    <circle cx="29" cy="14" r="1.0"/>
    <circle cx="14" cy="20" r="1.2"/>
    <circle cx="23" cy="26" r="1.1"/>
    <circle cx="33" cy="24" r="1.0"/>
  </g>
</svg>